<svg xmlns="http://www.w3.org/2000/svg" xmlns:xlink="http://www.w3.org/1999/xlink" preserveAspectRatio="xMidYMid" width="17.97" height="18" viewBox="0 0 17.97 18">
  <defs>
    <style>
      .cls-1 {
        fill: #fff;
        fill-rule: evenodd;
      }
    </style>
  </defs>
  <path d="M15.867,4.713 C15.821,4.403 15.558,4.186 15.248,4.186 L11.692,4.186 L11.692,2.729 C11.692,1.225 10.470,0.000 8.970,0.000 C7.470,0.000 6.248,1.225 6.248,2.729 L6.248,4.186 L2.692,4.186 C2.382,4.186 2.120,4.403 2.073,4.713 L0.001,17.271 C-0.030,17.457 0.016,17.643 0.140,17.783 C0.264,17.922 0.434,18.000 0.620,18.000 L17.321,18.000 C17.321,18.000 17.321,18.000 17.336,18.000 C17.692,18.000 17.970,17.721 17.970,17.364 C17.970,17.287 17.955,17.225 17.939,17.163 L15.867,4.713 ZM7.516,2.729 C7.516,1.922 8.166,1.271 8.970,1.271 C9.774,1.271 10.424,1.922 10.424,2.729 L10.424,4.186 L7.516,4.186 L7.516,2.729 ZM1.362,16.744 L3.233,5.457 L6.248,5.457 L6.248,9.008 C6.248,9.364 6.527,9.644 6.882,9.644 C7.238,9.644 7.516,9.364 7.516,9.008 L7.516,5.457 L10.424,5.457 L10.424,9.008 C10.424,9.364 10.702,9.644 11.058,9.644 C11.413,9.644 11.692,9.364 11.692,9.008 L11.692,5.457 L14.707,5.457 L16.578,16.744 L1.362,16.744 Z" class="cls-1"/>
</svg>
