<svg xmlns="http://www.w3.org/2000/svg" xmlns:xlink="http://www.w3.org/1999/xlink" preserveAspectRatio="xMidYMid" width="43" height="26" viewBox="0 0 43 26">
  <defs>
    <style>
      .cls-1 {
        fill: #182537;
        fill-rule: evenodd;
      }
    </style>
  </defs>
  <path d="M43.000,18.176 L33.077,18.176 C31.129,22.774 26.674,26.000 21.496,26.000 C16.319,26.000 11.863,22.774 9.915,18.176 L-0.000,18.176 L2.874,13.000 L-0.000,7.824 L9.915,7.824 C11.864,3.225 16.319,-0.000 21.496,-0.000 C26.674,-0.000 31.129,3.225 33.077,7.824 L43.000,7.824 L40.126,13.000 L43.000,18.176 ZM9.280,9.750 L3.224,9.750 L5.029,13.000 L3.224,16.250 L9.280,16.250 C9.019,15.209 8.865,14.124 8.865,13.000 C8.865,11.876 9.019,10.791 9.280,9.750 ZM21.496,1.925 C15.563,1.925 10.736,6.894 10.736,13.000 C10.736,19.106 15.563,24.074 21.496,24.074 C27.429,24.074 32.257,19.106 32.257,13.000 C32.257,6.894 27.429,1.925 21.496,1.925 ZM39.776,9.750 L33.712,9.750 C33.974,10.791 34.128,11.876 34.128,13.000 C34.128,14.124 33.974,15.209 33.712,16.250 L39.776,16.250 L37.971,13.000 L39.776,9.750 ZM15.551,12.343 L16.874,10.981 L20.631,14.848 L26.512,8.795 L27.836,10.158 L20.631,17.572 L15.551,12.343 Z" class="cls-1"/>
</svg>
