<svg xmlns="http://www.w3.org/2000/svg" xmlns:xlink="http://www.w3.org/1999/xlink" preserveAspectRatio="xMidYMid" width="48" height="25.94" viewBox="0 0 48 25.94">
  <defs>
    <style>
      .cls-1 {
        fill: #182537;
        fill-rule: evenodd;
      }
    </style>
  </defs>
  <path d="M29.755,17.217 C30.231,17.217 30.617,17.611 30.617,18.097 C30.617,18.583 30.231,18.977 29.755,18.977 L23.078,18.977 C22.603,18.977 22.216,18.583 22.216,18.097 C22.216,17.611 22.603,17.217 23.078,17.217 L29.755,17.217 ZM20.490,13.828 C20.269,13.828 20.049,13.742 19.881,13.571 L16.462,10.082 C16.125,9.738 16.125,9.180 16.462,8.837 C16.799,8.493 17.344,8.493 17.681,8.836 L20.490,11.704 L25.253,6.842 C25.590,6.499 26.135,6.499 26.472,6.842 C26.809,7.185 26.809,7.743 26.472,8.087 L21.100,13.571 C20.931,13.742 20.711,13.828 20.490,13.828 ZM47.136,22.897 L43.404,22.897 C43.010,24.643 41.482,25.952 39.654,25.952 C37.826,25.952 36.298,24.643 35.904,22.897 L33.899,22.897 L21.303,22.897 C20.909,24.643 19.381,25.952 17.554,25.952 C15.725,25.952 14.197,24.643 13.804,22.897 L9.035,22.897 C8.559,22.897 8.173,22.503 8.173,22.017 L8.173,18.977 L4.891,18.977 C4.415,18.977 4.029,18.583 4.029,18.097 C4.029,17.611 4.415,17.217 4.891,17.217 L12.258,17.217 C12.734,17.217 13.120,17.611 13.120,18.097 C13.120,18.583 12.734,18.977 12.258,18.977 L9.897,18.977 L9.897,21.137 L13.803,21.137 C14.196,19.391 15.725,18.082 17.554,18.082 C19.382,18.082 20.910,19.391 21.303,21.137 L33.037,21.137 L33.037,11.611 L33.037,11.610 L33.037,4.585 L33.037,1.746 L9.897,1.746 L9.897,5.406 C9.897,5.892 9.511,6.286 9.035,6.286 C8.559,6.286 8.173,5.892 8.173,5.406 L8.173,0.866 C8.173,0.380 8.559,-0.014 9.035,-0.014 L33.899,-0.014 C34.375,-0.014 34.761,0.380 34.761,0.866 L34.761,3.705 L42.215,3.705 L42.675,3.705 L43.913,3.705 C44.389,3.705 44.775,4.099 44.775,4.585 C44.775,5.071 44.389,5.466 43.913,5.466 L43.776,5.466 L45.116,11.006 L47.521,12.234 C47.814,12.383 47.998,12.687 47.998,13.021 L47.998,22.017 C47.998,22.503 47.612,22.897 47.136,22.897 ZM17.554,19.842 C16.379,19.842 15.422,20.818 15.422,22.016 C15.422,23.216 16.379,24.192 17.554,24.192 C18.728,24.192 19.684,23.216 19.684,22.016 C19.684,20.818 18.728,19.842 17.554,19.842 ZM39.654,24.192 C40.829,24.192 41.785,23.216 41.785,22.016 C41.785,20.818 40.829,19.842 39.654,19.842 C38.480,19.842 37.523,20.818 37.523,22.016 C37.523,23.216 38.480,24.192 39.654,24.192 ZM34.761,10.731 L43.273,10.731 L42.000,5.466 L34.761,5.466 L34.761,10.731 ZM46.274,17.695 L45.180,17.695 C44.704,17.695 44.317,17.302 44.317,16.815 C44.317,16.329 44.704,15.935 45.180,15.935 L46.274,15.935 L46.274,13.565 L44.171,12.491 L34.761,12.491 L34.761,21.137 L35.904,21.137 C36.297,19.391 37.825,18.082 39.654,18.082 C41.483,18.082 43.011,19.391 43.404,21.137 L46.274,21.137 L46.274,17.695 ZM11.738,9.637 C11.738,10.122 11.352,10.516 10.876,10.516 L6.503,10.516 C6.027,10.516 5.641,10.122 5.641,9.637 C5.641,9.150 6.027,8.756 6.503,8.756 L10.876,8.756 C11.352,8.756 11.738,9.150 11.738,9.637 ZM10.357,13.866 C10.357,14.352 9.971,14.746 9.495,14.746 L0.862,14.746 C0.386,14.746 -0.000,14.352 -0.000,13.866 C-0.000,13.380 0.386,12.986 0.862,12.986 L9.495,12.986 C9.971,12.986 10.357,13.380 10.357,13.866 Z" class="cls-1"/>
</svg>
