<svg xmlns="http://www.w3.org/2000/svg" xmlns:xlink="http://www.w3.org/1999/xlink" preserveAspectRatio="xMidYMid" width="164" height="30" viewBox="0 0 164 30">
  <defs>
    <style>
      .cls-1 {
        fill: #fff;
        fill-rule: evenodd;
      }
    </style>
  </defs>
  <path d="M154.877,29.704 C152.258,29.704 150.463,29.644 148.756,29.644 C147.579,29.644 146.726,29.704 145.548,29.704 C145.401,29.704 145.254,29.704 145.254,29.556 C145.254,29.378 145.636,29.378 145.695,29.378 C147.609,29.378 147.932,27.833 147.932,26.348 L147.932,19.669 C147.932,18.216 147.668,16.642 145.695,16.642 C145.666,16.642 145.254,16.642 145.254,16.464 C145.254,16.345 145.401,16.316 145.548,16.316 C146.726,16.316 147.579,16.375 148.756,16.375 C150.434,16.375 152.964,16.316 153.553,16.316 L154.731,16.316 C160.704,16.316 164.000,19.699 164.000,22.995 C164.000,26.260 160.763,29.704 154.877,29.704 ZM153.818,17.117 L151.640,17.117 C150.816,17.117 149.610,17.147 149.610,18.334 L149.610,26.111 C149.610,28.665 149.933,28.902 154.053,28.902 C159.880,28.902 161.823,25.756 161.823,23.025 C161.823,20.175 159.762,17.117 153.818,17.117 ZM142.262,29.822 C139.555,29.822 138.024,29.822 135.347,26.171 C133.816,24.063 133.492,23.974 132.580,23.974 L129.048,23.974 C128.989,23.974 128.960,24.093 128.960,24.093 L128.960,26.319 C128.960,27.389 129.048,27.922 129.225,28.309 C129.607,28.991 130.520,29.319 131.167,29.348 C131.461,29.348 131.726,29.348 131.726,29.526 C131.726,29.674 131.580,29.674 131.256,29.674 C130.226,29.674 129.313,29.615 128.313,29.615 C127.253,29.615 126.223,29.674 124.957,29.674 C124.663,29.674 124.487,29.674 124.487,29.526 C124.487,29.348 124.781,29.348 125.076,29.348 C125.723,29.319 126.606,28.991 126.989,28.309 C127.194,27.922 127.282,27.389 127.282,26.319 L127.282,19.462 C127.282,18.127 126.959,16.612 125.046,16.612 C125.017,16.612 124.605,16.612 124.605,16.434 C124.605,16.316 124.693,16.286 124.899,16.286 C125.959,16.286 127.077,16.345 128.136,16.345 C129.784,16.345 130.667,16.286 131.520,16.286 L134.022,16.286 C136.611,16.286 139.878,17.266 139.878,20.115 C139.878,22.371 137.877,23.589 135.817,23.856 C137.995,26.972 140.114,29.378 144.028,29.378 C144.293,29.378 144.293,29.615 144.057,29.674 C143.439,29.822 142.791,29.822 142.262,29.822 ZM137.701,20.115 C137.701,17.829 135.347,17.088 133.698,17.088 L129.637,17.088 C129.255,17.088 128.960,17.354 128.960,17.710 L128.960,23.025 C128.960,23.084 129.019,23.173 129.048,23.173 L133.698,23.173 C135.347,23.173 137.701,22.401 137.701,20.115 ZM119.317,2.455 L119.317,7.438 L118.100,7.438 L118.100,0.000 L118.419,0.000 L123.519,4.910 L123.519,0.000 L124.736,0.000 L124.736,7.438 L124.416,7.438 L119.317,2.455 ZM123.142,29.378 C123.437,29.378 123.702,29.378 123.702,29.556 C123.702,29.704 123.583,29.704 123.261,29.704 C122.171,29.704 121.700,29.644 120.641,29.644 C119.552,29.644 118.493,29.704 117.433,29.704 C117.110,29.704 116.933,29.704 116.933,29.556 C116.933,29.378 117.227,29.378 117.551,29.378 C118.287,29.378 118.816,29.169 118.816,28.635 C118.816,28.369 118.699,28.041 118.434,27.596 L112.783,18.156 L107.222,27.150 C106.515,28.279 106.309,29.378 108.045,29.378 C108.340,29.378 108.605,29.378 108.605,29.556 C108.605,29.674 108.457,29.704 108.163,29.704 C107.251,29.704 106.398,29.644 105.485,29.644 C104.602,29.644 104.014,29.704 103.160,29.704 C102.866,29.674 102.689,29.674 102.689,29.526 C102.689,29.378 102.984,29.348 103.278,29.348 C104.897,29.348 105.897,28.011 106.574,26.884 L112.342,17.532 C111.753,16.849 110.753,16.582 109.811,16.582 C109.723,16.582 109.664,16.523 109.664,16.464 C109.664,16.405 109.723,16.316 109.840,16.316 L111.960,16.316 C112.695,16.316 113.755,16.405 114.137,17.029 L120.435,27.507 C121.377,29.050 121.907,29.378 123.142,29.378 ZM99.991,28.339 C100.403,29.020 101.286,29.348 101.933,29.378 C102.228,29.378 102.493,29.378 102.493,29.556 C102.493,29.704 102.346,29.704 102.052,29.704 C100.992,29.704 99.932,29.644 98.903,29.644 C97.843,29.644 96.990,29.704 95.724,29.704 C95.430,29.704 95.283,29.704 95.283,29.556 C95.283,29.378 95.548,29.378 95.842,29.378 C96.490,29.348 97.402,29.020 97.785,28.339 C97.961,27.952 98.049,27.419 98.049,26.348 L98.049,23.054 C98.049,22.965 98.020,22.906 97.902,22.906 L85.836,22.906 C85.777,22.906 85.748,22.936 85.748,22.995 L85.748,26.348 C85.748,27.419 85.836,27.952 86.013,28.339 C86.395,29.020 87.307,29.348 87.955,29.378 C88.249,29.378 88.514,29.378 88.514,29.556 C88.514,29.704 88.367,29.704 88.043,29.704 C87.014,29.704 86.101,29.644 85.101,29.644 C84.041,29.644 82.981,29.704 81.745,29.704 C81.451,29.704 81.275,29.704 81.275,29.556 C81.275,29.378 81.569,29.378 81.863,29.378 C82.511,29.348 83.394,29.020 83.776,28.339 C83.982,27.952 84.070,27.419 84.070,26.348 L84.070,19.669 C84.070,18.601 83.982,18.038 83.776,17.680 C83.394,16.999 82.511,16.671 81.863,16.642 C81.569,16.642 81.275,16.642 81.275,16.464 C81.275,16.316 81.451,16.316 81.745,16.316 C82.805,16.316 83.688,16.375 84.718,16.375 C85.777,16.375 86.807,16.316 88.043,16.316 C88.367,16.316 88.514,16.316 88.514,16.464 C88.514,16.642 88.249,16.642 87.955,16.642 C87.307,16.671 86.395,16.999 86.013,17.680 C85.836,18.038 85.748,18.601 85.748,19.669 L85.748,21.986 C85.748,22.045 85.777,22.075 85.836,22.075 L97.902,22.075 C98.020,22.075 98.049,22.045 98.049,21.986 L98.049,19.669 C98.049,18.601 97.961,18.038 97.785,17.680 C97.402,16.999 96.490,16.671 95.842,16.642 C95.548,16.642 95.283,16.642 95.283,16.464 C95.283,16.316 95.430,16.316 95.724,16.316 C96.783,16.316 97.873,16.375 98.873,16.375 C99.932,16.375 100.815,16.316 102.052,16.316 C102.346,16.316 102.493,16.316 102.493,16.464 C102.493,16.642 102.228,16.642 101.933,16.642 C101.286,16.671 100.403,16.999 99.991,17.680 C99.815,18.038 99.727,18.601 99.727,19.669 L99.727,26.348 C99.727,27.419 99.815,27.952 99.991,28.339 ZM94.685,2.270 L94.611,2.270 L92.190,7.438 L90.814,7.438 L94.525,0.000 L94.759,0.000 L98.494,7.438 L97.106,7.438 L94.685,2.270 ZM77.811,20.977 C77.693,20.977 77.664,20.858 77.664,20.799 C76.839,17.769 73.809,16.730 71.101,16.730 C67.275,16.730 63.390,18.929 63.390,23.084 C63.390,27.239 67.275,29.289 71.101,29.289 C73.868,29.289 76.722,28.279 77.664,25.339 C77.664,25.310 77.693,25.191 77.811,25.191 C78.016,25.191 78.016,25.280 78.016,25.339 C78.016,29.674 77.958,28.130 76.604,28.724 C74.956,29.556 72.867,30.000 70.630,30.000 C66.068,30.000 61.272,28.041 61.272,23.084 C61.272,18.216 66.245,16.049 70.836,16.049 C72.631,16.049 74.368,16.434 75.722,16.969 C76.457,17.236 76.839,17.414 77.369,17.414 C77.576,17.414 77.781,17.266 77.928,17.266 C78.046,17.266 78.135,17.354 78.135,17.591 L78.016,20.799 C78.016,20.858 77.987,20.977 77.811,20.977 ZM65.529,0.000 L71.120,0.000 L71.120,1.092 L66.746,1.092 L66.746,3.236 L70.457,3.236 L70.457,4.277 L66.746,4.277 L66.746,6.347 L71.120,6.347 L71.120,7.438 L65.529,7.438 L65.529,0.000 ZM48.833,30.000 C43.271,30.000 39.711,26.854 39.711,23.321 C39.711,19.551 43.065,16.049 49.363,16.049 C54.925,16.049 58.486,19.195 58.486,22.728 C58.486,26.498 55.131,30.000 48.833,30.000 ZM48.686,16.612 C44.890,16.612 41.829,18.899 41.829,22.728 C41.829,26.052 44.007,29.437 49.510,29.437 C53.307,29.437 56.367,27.150 56.367,23.321 C56.367,19.997 54.190,16.612 48.686,16.612 ZM42.017,7.438 L39.264,7.438 L39.264,0.000 L42.017,0.000 C44.401,0.000 45.937,1.500 45.937,3.720 C45.937,5.938 44.401,7.438 42.017,7.438 ZM41.931,1.092 L40.481,1.092 L40.481,6.347 L41.931,6.347 C43.504,6.347 44.696,5.405 44.696,3.720 C44.696,2.033 43.504,1.092 41.931,1.092 ZM39.455,29.378 C39.720,29.378 39.720,29.615 39.484,29.674 C38.866,29.822 38.218,29.822 37.689,29.822 C34.982,29.822 33.451,29.822 30.774,26.171 C29.243,24.063 28.920,23.974 28.007,23.974 L24.475,23.974 C24.417,23.974 24.387,24.093 24.387,24.093 L24.387,26.319 C24.387,27.389 24.475,27.922 24.652,28.309 C25.034,28.991 25.947,29.319 26.595,29.348 C26.888,29.348 27.154,29.348 27.154,29.526 C27.154,29.674 27.007,29.674 26.683,29.674 C25.653,29.674 24.741,29.615 23.740,29.615 C22.680,29.615 21.650,29.674 20.384,29.674 C20.091,29.674 19.914,29.674 19.914,29.526 C19.914,29.348 20.208,29.348 20.503,29.348 C21.150,29.319 22.033,28.991 22.416,28.309 C22.621,27.922 22.709,27.389 22.709,26.319 L22.709,19.462 C22.709,18.127 22.386,16.612 20.473,16.612 C20.444,16.612 20.032,16.612 20.032,16.434 C20.032,16.316 20.120,16.286 20.326,16.286 C21.386,16.286 22.504,16.345 23.563,16.345 C25.211,16.345 26.094,16.286 26.947,16.286 L29.449,16.286 C32.039,16.286 35.305,17.266 35.305,20.115 C35.305,22.371 33.304,23.589 31.244,23.856 C33.422,26.972 35.541,29.378 39.455,29.378 ZM33.128,20.115 C33.128,17.829 30.774,17.088 29.125,17.088 L25.064,17.088 C24.682,17.088 24.387,17.354 24.387,17.710 L24.387,23.025 C24.387,23.084 24.446,23.173 24.475,23.173 L29.125,23.173 C30.774,23.173 33.128,22.401 33.128,20.115 ZM9.564,29.704 L6.768,29.704 C5.768,29.704 4.944,29.644 3.678,29.644 C2.560,29.644 1.442,29.704 0.294,29.704 C0.294,29.704 0.000,29.704 0.000,29.556 C0.000,29.378 0.411,29.378 0.441,29.378 C2.353,29.378 2.677,27.833 2.677,26.348 L2.677,19.492 C2.677,18.156 2.295,16.642 0.441,16.642 C0.411,16.642 0.000,16.642 0.000,16.464 C0.000,16.345 0.088,16.316 0.294,16.316 C1.353,16.316 2.413,16.375 3.443,16.375 C5.002,16.375 6.151,16.316 7.415,16.316 L8.946,16.316 C11.389,16.316 15.685,16.316 15.685,19.580 C15.685,21.006 14.802,22.075 13.802,22.371 C15.361,22.580 16.951,23.856 16.951,25.845 C16.951,29.526 12.242,29.704 9.564,29.704 ZM9.740,17.117 L5.973,17.117 C5.444,17.117 4.355,17.266 4.355,18.305 L4.355,21.926 C4.355,22.045 4.443,22.104 4.532,22.104 L9.682,22.104 C11.389,22.104 13.595,21.778 13.595,19.669 C13.595,17.621 11.448,17.117 9.740,17.117 ZM10.329,22.906 L4.443,22.906 C4.385,22.965 4.355,23.054 4.355,23.084 L4.355,25.963 C4.355,28.902 4.590,28.902 9.682,28.902 L10.623,28.902 C12.212,28.902 14.832,28.130 14.832,25.815 C14.832,23.974 13.272,22.906 10.329,22.906 Z" class="cls-1"/>
</svg>
