<svg xmlns="http://www.w3.org/2000/svg" xmlns:xlink="http://www.w3.org/1999/xlink" preserveAspectRatio="xMidYMid" width="21.969" height="21.969" viewBox="0 0 21.969 21.969">
  <defs>
    <style>
      .cls-1 {
        fill: #9eacbb;
        fill-rule: evenodd;
      }
    </style>
  </defs>
  <path d="M21.964,10.987 C21.964,17.042 17.037,21.970 10.981,21.970 C8.246,21.970 5.746,20.958 3.822,19.297 L1.387,21.732 L0.236,20.581 L2.671,18.146 C1.010,16.221 -0.002,13.722 -0.002,10.987 C-0.002,4.930 4.925,0.004 10.981,0.004 C13.717,0.004 16.216,1.016 18.141,2.676 L20.575,0.242 L21.726,1.393 L19.292,3.827 C20.952,5.752 21.964,8.251 21.964,10.987 ZM10.981,20.343 C16.140,20.343 20.337,16.145 20.337,10.987 C20.337,8.700 19.510,6.604 18.142,4.977 L16.389,6.730 C17.318,7.907 17.896,9.374 17.896,10.987 C17.896,14.800 14.794,17.902 10.981,17.902 C9.368,17.902 7.902,17.324 6.724,16.395 L4.971,18.147 C6.598,19.515 8.694,20.343 10.981,20.343 ZM6.723,14.094 L14.088,6.729 C13.214,6.088 12.146,5.698 10.981,5.698 C8.065,5.698 5.693,8.071 5.693,10.987 C5.693,12.151 6.083,13.219 6.723,14.094 ZM7.874,15.245 C8.749,15.885 9.817,16.275 10.981,16.275 C13.897,16.275 16.270,13.903 16.270,10.987 C16.270,9.822 15.879,8.754 15.239,7.880 L7.874,15.245 ZM10.981,1.630 C5.822,1.630 1.625,5.828 1.625,10.987 C1.625,13.274 2.452,15.369 3.820,16.996 L5.573,15.244 C4.644,14.066 4.066,12.600 4.066,10.987 C4.066,7.173 7.168,4.072 10.981,4.072 C12.594,4.072 14.061,4.650 15.238,5.579 L16.991,3.826 C15.364,2.458 13.268,1.630 10.981,1.630 Z" class="cls-1"/>
</svg>
