<svg xmlns="http://www.w3.org/2000/svg" xmlns:xlink="http://www.w3.org/1999/xlink" preserveAspectRatio="xMidYMid" width="36" height="21" viewBox="0 0 36 21">
  <defs>
    <style>
      .cls-1 {
        fill: #9eacbb;
        fill-rule: evenodd;
      }
    </style>
  </defs>
  <path d="M35.199,18.755 L13.297,18.755 L13.297,20.199 C13.297,20.639 12.939,20.996 12.499,20.996 L5.780,20.996 C5.340,20.996 4.982,20.639 4.982,20.199 L4.982,18.755 L0.791,18.755 C0.351,18.755 -0.007,18.399 -0.007,17.959 L-0.007,3.024 C-0.007,2.584 0.351,2.227 0.791,2.227 L4.982,2.227 L4.982,0.784 C4.982,0.343 5.340,-0.013 5.780,-0.013 L12.499,-0.013 C12.939,-0.013 13.297,0.343 13.297,0.784 L13.297,2.227 L35.199,2.227 C35.640,2.227 35.997,2.584 35.997,3.024 L35.997,17.959 C35.997,18.399 35.640,18.755 35.199,18.755 ZM4.982,3.820 L1.589,3.820 L1.589,17.162 L4.982,17.162 L4.982,3.820 ZM11.701,17.959 L11.701,3.024 L11.701,1.580 L6.578,1.580 L6.578,3.024 L6.578,17.959 L6.578,19.403 L11.701,19.403 L11.701,17.959 ZM34.401,3.820 L13.297,3.820 L13.297,17.162 L34.401,17.162 L34.401,3.820 ZM19.106,9.083 C19.885,9.083 20.517,9.714 20.517,10.491 C20.517,11.269 19.885,11.899 19.106,11.899 C18.327,11.899 17.695,11.269 17.695,10.491 C17.695,9.714 18.327,9.083 19.106,9.083 ZM24.431,9.083 C25.210,9.083 25.841,9.714 25.841,10.491 C25.841,11.269 25.210,11.899 24.431,11.899 C23.652,11.899 23.020,11.269 23.020,10.491 C23.020,9.714 23.652,9.083 24.431,9.083 ZM29.755,9.083 C30.534,9.083 31.166,9.714 31.166,10.491 C31.166,11.269 30.534,11.899 29.755,11.899 C28.976,11.899 28.344,11.269 28.344,10.491 C28.344,9.714 28.976,9.083 29.755,9.083 Z" class="cls-1"/>
</svg>
