<svg xmlns="http://www.w3.org/2000/svg" xmlns:xlink="http://www.w3.org/1999/xlink" preserveAspectRatio="xMidYMid" width="18.969" height="24" viewBox="0 0 18.969 24">
  <defs>
    <style>
      .cls-1 {
        fill: #9eacbb;
        fill-rule: evenodd;
      }
    </style>
  </defs>
  <path d="M18.142,20.406 L15.696,20.406 L15.696,23.197 C15.696,23.639 15.332,23.998 14.882,23.998 L4.063,23.998 C3.613,23.998 3.249,23.639 3.249,23.197 L3.249,20.406 L0.803,20.406 C0.354,20.406 -0.010,20.047 -0.010,19.605 L-0.010,4.394 C-0.010,3.951 0.354,3.593 0.803,3.593 L3.249,3.593 L3.249,0.802 C3.249,0.360 3.613,0.001 4.063,0.001 L14.882,0.001 C15.332,0.001 15.696,0.360 15.696,0.802 L15.696,3.593 L18.142,3.593 C18.591,3.593 18.955,3.951 18.955,4.394 L18.955,19.605 C18.955,20.047 18.591,20.406 18.142,20.406 ZM14.069,22.396 L14.069,19.943 C14.019,19.840 13.987,19.727 13.987,19.605 L13.987,18.402 L4.959,18.402 L4.959,19.605 C4.959,19.728 4.926,19.840 4.876,19.944 L4.876,22.396 L14.069,22.396 ZM13.987,16.801 L13.987,7.198 L4.959,7.198 L4.959,16.801 L13.987,16.801 ZM1.617,5.195 L1.617,18.805 L3.249,18.805 L3.249,5.195 L1.617,5.195 ZM4.876,1.603 L4.876,4.055 C4.926,4.159 4.959,4.272 4.959,4.394 L4.959,5.596 L13.987,5.596 L13.987,4.394 C13.987,4.272 14.019,4.159 14.069,4.056 L14.069,1.603 L4.876,1.603 ZM17.328,5.195 L15.696,5.195 L15.696,18.805 L17.328,18.805 L17.328,5.195 Z" class="cls-1"/>
</svg>
