<svg xmlns="http://www.w3.org/2000/svg" xmlns:xlink="http://www.w3.org/1999/xlink" preserveAspectRatio="xMidYMid" width="16.81" height="21.906" viewBox="0 0 16.81 21.906">
  <defs>
    <style>
      .cls-1 {
        fill: #9eacbb;
        fill-rule: evenodd;
      }
    </style>
  </defs>
  <path d="M16.801,21.101 C16.800,21.205 16.780,21.308 16.739,21.405 C16.699,21.502 16.641,21.588 16.569,21.662 C16.567,21.664 16.567,21.667 16.565,21.669 C16.561,21.672 16.557,21.673 16.553,21.676 C16.481,21.746 16.396,21.804 16.301,21.843 C16.202,21.884 16.097,21.906 15.992,21.906 L0.796,21.906 C0.691,21.906 0.586,21.884 0.487,21.843 C0.391,21.804 0.305,21.746 0.232,21.674 C0.230,21.672 0.226,21.671 0.224,21.669 C0.223,21.668 0.223,21.667 0.222,21.666 C0.148,21.592 0.089,21.503 0.049,21.405 C0.008,21.306 -0.014,21.201 -0.014,21.095 L-0.014,0.823 C-0.014,0.718 0.008,0.612 0.049,0.513 C0.087,0.422 0.143,0.342 0.209,0.271 C0.215,0.265 0.217,0.256 0.224,0.249 C0.234,0.239 0.247,0.236 0.258,0.227 C0.326,0.165 0.401,0.111 0.487,0.075 C0.581,0.036 0.681,0.018 0.781,0.016 C0.786,0.016 0.791,0.013 0.796,0.013 L15.992,0.013 C15.998,0.013 16.003,0.016 16.009,0.016 C16.108,0.018 16.208,0.036 16.301,0.075 C16.386,0.110 16.460,0.164 16.528,0.225 C16.539,0.235 16.554,0.239 16.565,0.249 C16.572,0.257 16.574,0.267 16.581,0.275 C16.646,0.345 16.702,0.423 16.739,0.513 C16.780,0.611 16.801,0.715 16.801,0.819 C16.801,0.820 16.802,0.822 16.802,0.823 L16.802,21.095 C16.802,21.097 16.801,21.099 16.801,21.101 ZM9.204,20.284 L14.036,20.284 L11.605,17.851 L9.204,17.851 L9.204,20.284 ZM11.129,16.230 L11.129,5.689 L5.659,5.689 L5.659,16.230 L11.129,16.230 ZM7.584,17.851 L5.184,17.851 L2.752,20.284 L7.584,20.284 L7.584,17.851 ZM1.607,19.138 L4.038,16.705 L4.038,11.643 L1.607,11.643 L1.607,19.138 ZM1.607,10.021 L4.038,10.021 L4.038,5.213 L1.607,2.780 L1.607,10.021 ZM7.584,1.634 L2.752,1.634 L5.184,4.067 L7.584,4.067 L7.584,1.634 ZM9.204,1.634 L9.204,4.067 L11.605,4.067 L14.036,1.634 L9.204,1.634 ZM15.181,2.780 L12.750,5.213 L12.750,10.021 L15.181,10.021 L15.181,2.780 ZM15.181,11.643 L12.750,11.643 L12.750,16.705 L15.181,19.138 L15.181,11.643 Z" class="cls-1"/>
</svg>
