<svg xmlns="http://www.w3.org/2000/svg" xmlns:xlink="http://www.w3.org/1999/xlink" preserveAspectRatio="xMidYMid" width="14.969" height="22.969" viewBox="0 0 14.969 22.969">
  <defs>
    <style>
      .cls-1 {
        fill: #9eacbb;
        fill-rule: evenodd;
      }
    </style>
  </defs>
  <path d="M14.144,19.977 L12.915,19.977 L12.915,22.149 C12.915,22.598 12.548,22.962 12.096,22.962 L2.879,22.962 C2.426,22.962 2.059,22.598 2.059,22.149 L2.059,19.977 L0.830,19.977 C0.378,19.977 0.011,19.613 0.011,19.164 L0.011,3.857 C0.011,3.407 0.378,3.043 0.830,3.043 L2.059,3.043 L2.059,0.808 C2.059,0.359 2.426,-0.006 2.879,-0.006 L12.096,-0.006 C12.548,-0.006 12.915,0.359 12.915,0.808 L12.915,3.043 L14.144,3.043 C14.596,3.043 14.963,3.407 14.963,3.857 L14.963,19.164 C14.963,19.613 14.596,19.977 14.144,19.977 ZM3.698,21.336 L11.277,21.336 L11.277,19.977 L3.698,19.977 L3.698,21.336 ZM11.277,1.620 L3.698,1.620 L3.698,2.980 L11.277,2.980 L11.277,1.620 ZM13.325,4.669 L1.649,4.669 L1.649,18.351 L2.879,18.351 L12.096,18.351 L13.325,18.351 L13.325,4.669 ZM10.100,14.409 C9.955,14.409 9.808,14.371 9.675,14.291 L7.061,12.713 C7.032,12.695 7.015,12.668 6.989,12.647 C6.946,12.614 6.907,12.580 6.872,12.539 C6.836,12.498 6.809,12.455 6.783,12.408 C6.758,12.365 6.736,12.322 6.720,12.273 C6.702,12.219 6.693,12.165 6.686,12.108 C6.683,12.077 6.668,12.050 6.668,12.019 L6.668,6.577 C6.668,6.128 7.035,5.764 7.487,5.764 C7.939,5.764 8.306,6.128 8.306,6.577 L8.306,11.560 L10.527,12.901 C10.913,13.134 11.036,13.634 10.801,14.018 C10.647,14.269 10.377,14.409 10.100,14.409 Z" class="cls-1"/>
</svg>
