<svg xmlns="http://www.w3.org/2000/svg" xmlns:xlink="http://www.w3.org/1999/xlink" preserveAspectRatio="xMidYMid" width="28" height="17.969" viewBox="0 0 28 17.969">
  <defs>
    <style>
      .cls-1 {
        fill: #ffffff;
        fill-rule: evenodd;
      }
    </style>
  </defs>
  <path d="M23.325,8.116 C25.679,8.534 28.000,10.015 28.000,12.849 C28.000,17.292 22.430,17.969 18.949,17.969 L12.747,17.969 C11.521,17.969 10.228,17.905 9.067,17.905 C8.172,17.905 6.945,17.969 5.685,17.969 C5.121,17.969 4.989,17.936 4.989,17.808 C4.989,17.647 5.121,17.615 5.651,17.615 C6.380,17.615 7.575,17.261 8.006,16.520 C8.142,16.256 8.230,15.896 8.259,15.370 C6.343,15.356 4.865,15.320 3.472,15.320 C2.305,15.320 1.459,15.376 0.291,15.376 C0.145,15.376 -0.000,15.376 -0.000,15.234 C-0.000,15.064 0.379,15.064 0.437,15.064 C2.334,15.064 2.656,13.591 2.656,12.172 L2.656,5.795 C2.656,4.405 2.393,2.903 0.437,2.903 C0.408,2.903 -0.000,2.903 -0.000,2.733 C-0.000,2.620 0.145,2.592 0.291,2.592 C1.459,2.592 2.305,2.648 3.472,2.648 C5.136,2.648 7.647,2.592 8.230,2.592 L8.246,2.592 C8.217,2.067 8.154,1.696 8.006,1.449 C7.575,0.709 6.380,0.354 5.651,0.354 C5.121,0.354 4.989,0.354 4.989,0.162 C4.989,-0.031 5.121,0.000 5.685,0.000 C7.011,0.000 8.238,0.065 9.199,0.065 C10.526,0.065 11.852,0.000 13.113,0.000 L17.357,0.000 C19.844,0.000 26.276,0.000 26.276,4.251 C26.276,6.345 24.851,7.408 23.325,8.116 ZM14.803,17.100 L18.949,17.100 C23.291,17.100 25.347,14.910 25.347,12.881 C25.347,10.853 23.291,8.792 19.645,8.792 L18.581,8.792 C18.584,8.851 18.593,8.911 18.593,8.970 C18.593,11.933 15.688,15.044 10.389,15.346 C10.586,16.843 11.406,17.074 14.803,17.100 ZM10.326,7.697 C10.326,7.762 10.360,7.857 10.360,7.890 L16.312,7.890 C15.871,5.845 14.131,3.932 10.326,3.469 L10.326,7.697 ZM10.426,8.792 C10.394,8.824 10.326,8.856 10.326,8.888 L10.326,13.847 C10.326,14.090 10.329,14.309 10.334,14.517 C14.861,14.008 16.432,11.345 16.432,8.998 C16.432,8.929 16.425,8.861 16.423,8.792 L10.426,8.792 ZM6.334,3.358 C5.516,3.358 4.320,3.386 4.320,4.520 L4.320,11.946 C4.320,14.282 4.652,14.585 8.272,14.606 L8.272,3.640 C8.272,3.535 8.269,3.455 8.268,3.358 L6.334,3.358 ZM17.621,0.902 L11.587,0.902 C11.223,0.902 10.326,1.095 10.326,1.869 L10.326,2.623 C15.016,2.904 17.843,5.293 18.460,7.890 L18.517,7.890 C20.540,7.890 23.623,7.182 23.623,4.348 C23.623,1.449 20.440,0.902 17.621,0.902 Z" class="cls-1"/>
</svg>
