<svg xmlns="http://www.w3.org/2000/svg" xmlns:xlink="http://www.w3.org/1999/xlink" preserveAspectRatio="xMidYMid" width="18" height="18" fill="#ffffff" viewBox="0 0 18 18">
  <path d="M15.364,2.636 C17.064,4.336 18.000,6.596 18.000,9.000 C18.000,11.404 17.064,13.664 15.364,15.364 C13.664,17.064 11.404,18.000 9.000,18.000 C6.596,18.000 4.336,17.064 2.636,15.364 C0.936,13.664 -0.000,11.404 -0.000,9.000 C-0.000,6.596 0.936,4.336 2.636,2.636 C4.336,0.936 6.596,-0.000 9.000,-0.000 C11.404,-0.000 13.664,0.936 15.364,2.636 ZM14.568,14.569 C15.677,13.460 16.414,12.079 16.718,10.577 C16.481,10.926 16.254,11.055 16.114,10.275 C15.970,9.002 14.801,9.815 14.066,9.363 C13.292,9.885 11.554,8.349 11.849,10.081 C12.305,10.862 14.310,9.036 13.311,10.688 C12.673,11.841 10.979,14.396 11.200,15.720 C11.228,17.649 9.229,16.122 8.540,15.482 C8.077,14.200 8.382,11.960 7.171,11.332 C5.856,11.275 4.727,11.156 4.218,9.686 C3.911,8.634 4.544,7.068 5.671,6.827 C7.321,5.790 7.910,8.040 9.457,8.082 C9.937,7.580 11.247,7.420 11.355,6.856 C10.340,6.677 12.643,6.003 11.258,5.619 C10.494,5.709 10.002,6.412 10.408,7.007 C8.927,7.352 8.880,4.864 7.456,5.649 C7.420,6.890 5.132,6.051 6.665,5.800 C7.191,5.570 5.806,4.903 6.554,5.024 C6.922,5.004 8.160,4.570 7.825,4.279 C8.514,3.851 9.093,5.303 9.768,4.246 C10.255,3.432 9.564,3.282 8.953,3.694 C8.609,3.309 9.561,2.477 10.400,2.117 C10.680,1.997 10.947,1.932 11.152,1.950 C11.575,2.439 12.357,2.523 12.398,1.892 C11.350,1.390 10.196,1.125 9.000,1.125 C7.284,1.125 5.652,1.670 4.301,2.679 C4.664,2.845 4.870,3.052 4.521,3.317 C4.249,4.126 3.147,5.213 2.179,5.059 C1.676,5.926 1.345,6.880 1.204,7.881 C2.014,8.149 2.201,8.680 2.027,8.857 C1.614,9.217 1.360,9.728 1.230,10.287 C1.493,11.901 2.252,13.389 3.432,14.569 C4.919,16.056 6.897,16.875 9.000,16.875 C11.104,16.875 13.081,16.056 14.568,14.569 Z" class="cls-1"/>
</svg>
